<?xml version="1.0" encoding="UTF-8" standalone="no"?>
<!-- Created with Inkscape (http://www.inkscape.org/) -->
<svg
   xmlns:dc="http://purl.org/dc/elements/1.1/"
   xmlns:cc="http://creativecommons.org/ns#"
   xmlns:rdf="http://www.w3.org/1999/02/22-rdf-syntax-ns#"
   xmlns:svg="http://www.w3.org/2000/svg"
   xmlns="http://www.w3.org/2000/svg"
   xmlns:xlink="http://www.w3.org/1999/xlink"
   xmlns:sodipodi="http://sodipodi.sourceforge.net/DTD/sodipodi-0.dtd"
   xmlns:inkscape="http://www.inkscape.org/namespaces/inkscape"
   width="250"
   height="250"
   id="svg2"
   sodipodi:version="0.32"
   inkscape:version="0.46"
   version="1.0"
   sodipodi:docname="background.svg"
   inkscape:output_extension="org.inkscape.output.svg.inkscape"
   inkscape:export-filename="/home/danigmArch/Documentos/Projects/python/pixWar/data/background.png"
   inkscape:export-xdpi="216"
   inkscape:export-ydpi="216">
  <defs
     id="defs4">
    <linearGradient
       inkscape:collect="always"
       id="linearGradient3428">
      <stop
         style="stop-color:#ff0000;stop-opacity:1"
         offset="0"
         id="stop3430" />
      <stop
         style="stop-color:#ffff00;stop-opacity:1"
         offset="1"
         id="stop3432" />
    </linearGradient>
    <inkscape:perspective
       sodipodi:type="inkscape:persp3d"
       inkscape:vp_x="0 : 526.18109 : 1"
       inkscape:vp_y="0 : 1000 : 0"
       inkscape:vp_z="744.09448 : 526.18109 : 1"
       inkscape:persp3d-origin="372.04724 : 350.78739 : 1"
       id="perspective10" />
    <radialGradient
       gradientTransform="matrix(0.3650683,-1.2491342,1.4964985,0.437362,-42.023682,1022.4844)"
       gradientUnits="userSpaceOnUse"
       r="236.42857"
       fy="288.15286"
       fx="518.10187"
       cy="288.15286"
       cx="518.10187"
       id="radialGradient2390"
       xlink:href="#linearGradient2384"
       inkscape:collect="always" />
    <inkscape:perspective
       id="perspective11"
       inkscape:persp3d-origin="236.43304 : 157.62035 : 1"
       inkscape:vp_z="472.86609 : 236.43053 : 1"
       inkscape:vp_y="0 : 1000 : 0"
       inkscape:vp_x="0 : 236.43053 : 1"
       sodipodi:type="inkscape:persp3d" />
    <linearGradient
       id="linearGradient2384"
       inkscape:collect="always">
      <stop
         id="stop2386"
         offset="0"
         style="stop-color:#004f00;stop-opacity:1" />
      <stop
         id="stop2388"
         offset="1"
         style="stop-color:#44ff44;stop-opacity:1" />
    </linearGradient>
    <filter
       inkscape:collect="always"
       id="filter3424">
      <feGaussianBlur
         inkscape:collect="always"
         stdDeviation="1.4177693"
         id="feGaussianBlur3426" />
    </filter>
    <radialGradient
       inkscape:collect="always"
       xlink:href="#linearGradient3428"
       id="radialGradient3434"
       cx="46.033649"
       cy="32.407566"
       fx="46.033649"
       fy="32.407566"
       r="35.444233"
       gradientUnits="userSpaceOnUse"
       gradientTransform="matrix(-1.4185863,-0.1853009,0.1628454,-1.2466771,108.70203,84.664596)" />
  </defs>
  <sodipodi:namedview
     id="base"
     pagecolor="#ffffff"
     bordercolor="#666666"
     borderopacity="1.0"
     inkscape:pageopacity="0.0"
     inkscape:pageshadow="2"
     inkscape:zoom="2.116"
     inkscape:cx="41.351607"
     inkscape:cy="127.66569"
     inkscape:document-units="px"
     inkscape:current-layer="layer1"
     showgrid="false"
     inkscape:window-width="1270"
     inkscape:window-height="749"
     inkscape:window-x="5"
     inkscape:window-y="46" />
  <metadata
     id="metadata7">
    <rdf:RDF>
      <cc:Work
         rdf:about="">
        <dc:format>image/svg+xml</dc:format>
        <dc:type
           rdf:resource="http://purl.org/dc/dcmitype/StillImage" />
      </cc:Work>
    </rdf:RDF>
  </metadata>
  <g
     inkscape:label="Capa 1"
     inkscape:groupmode="layer"
     id="layer1"
     transform="translate(-318.92856,-234.1479)">
    <path
       sodipodi:type="arc"
       style="fill:url(#radialGradient2390);fill-opacity:1;stroke:#000000;stroke-width:10;stroke-miterlimit:4;stroke-dasharray:none;stroke-opacity:1"
       id="path2160"
       sodipodi:cx="440"
       sodipodi:cy="349.50504"
       sodipodi:rx="231.42857"
       sodipodi:ry="231.42857"
       d="M 671.42857,349.50504 A 231.42857,231.42857 0 1 1 208.57143,349.50504 A 231.42857,231.42857 0 1 1 671.42857,349.50504 z"
       transform="matrix(0.5,0,0,0.5,222.953,182.97289)" />
    <path
       style="fill:none;fill-opacity:0.1837607;fill-rule:nonzero;stroke:none;stroke-width:1;stroke-linecap:butt;stroke-linejoin:round;stroke-miterlimit:4;stroke-dasharray:none;stroke-opacity:1"
       d="M 327.23402,346.18558 C 404.58859,414.18275 553.68331,390.47731 553.68331,390.47731"
       id="path2392" />
    <path
       style="fill:none;fill-opacity:0.1837607;fill-rule:nonzero;stroke:#000000;stroke-width:0.5;stroke-linecap:butt;stroke-linejoin:round;stroke-miterlimit:4;stroke-dasharray:none;stroke-opacity:1"
       d="M 442.95746,242.01112 C 429.44053,242.01112 416.45683,244.33909 404.39496,248.60487 L 404.30121,249.33924 L 416.36371,269.90174 L 438.25434,257.38612 L 460.16059,270.79237 L 453.91059,295.38612 L 432.45746,307.44862 L 453.45746,316.83924 L 484.30121,304.76112 L 491.00433,284.19862 L 506.19183,291.35487 L 496.81684,316.38612 L 489.20746,323.08924 L 514.69183,319.51112 L 524.06684,294.04237 L 518.26996,271.68299 L 517.73871,269.46424 C 497.56403,252.35067 471.46526,242.01112 442.95746,242.01112 z"
       id="path3170" />
    <path
       sodipodi:type="inkscape:offset"
       inkscape:radius="-4.4647079"
       inkscape:original="M 236.4375 5 C 209.40364 5 183.43623 9.6559427 159.3125 18.1875 L 159.125 19.65625 L 183.25 60.78125 L 227.03125 35.75 L 270.84375 62.5625 L 258.34375 111.75 L 215.4375 135.875 L 257.4375 154.65625 L 319.125 130.5 L 332.53125 89.375 L 362.90625 103.6875 L 344.15625 153.75 L 328.9375 167.15625 L 379.90625 160 L 398.65625 109.0625 L 387.0625 64.34375 L 386 59.90625 C 345.65064 25.679104 293.45311 4.9999999 236.4375 5 z "
       style="fill:none;fill-opacity:0.1837607;fill-rule:nonzero;stroke:#000000;stroke-width:1;stroke-linecap:butt;stroke-linejoin:round;stroke-miterlimit:4;stroke-dasharray:none;stroke-opacity:1"
       id="path3177"
       d="M 236.4375,9.46875 C 211.49767,9.46875 187.56989,13.655305 165.125,21.09375 L 184.84375,54.71875 L 224.8125,31.875 C 226.22997,31.058529 227.98043,31.082508 229.375,31.9375 L 273.1875,58.75 C 274.84539,59.779472 275.64266,61.766328 275.15625,63.65625 L 262.65625,112.84375 C 262.36361,114.03301 261.59532,115.04985 260.53125,115.65625 L 225.34375,135.4375 L 257.53125,149.8125 L 315.53125,127.125 L 328.28125,88 C 328.67787,86.779443 329.5805,85.788558 330.75887,85.280123 C 331.93725,84.771688 333.27742,84.794868 334.4375,85.34375 L 364.8125,99.65625 C 366.91026,100.64541 367.90147,103.07592 367.09375,105.25 L 348.34375,155.3125 C 348.08035,156.00025 347.65094,156.61217 347.09375,157.09375 L 343.03125,160.6875 L 376.625,155.96875 L 394,108.84375 L 382.75,65.46875 C 382.73924,65.437616 382.72882,65.406364 382.71875,65.375 L 382.03125,62.4375 C 342.60376,29.404262 291.87097,9.4687499 236.4375,9.46875 z"
       transform="matrix(0.5,0,0,0.5,324.73871,239.51112)" />
    <path
       transform="matrix(0.5,0,0,0.5,324.73871,239.51112)"
       d="M 236.4375,14.78125 C 214.40023,14.78125 193.20349,18.197493 173.125,24.1875 L 186.78125,47.5 L 222.1875,27.25 C 225.28168,25.490028 229.08769,25.549871 232.125,27.40625 L 275.9375,54.21875 C 279.59376,56.456384 281.36716,60.813882 280.3125,64.96875 L 267.8125,114.15625 C 267.15484,116.75375 265.46044,118.96776 263.125,120.28125 L 237.1875,134.875 L 257.71875,144.0625 L 311.25,123.09375 L 323.21875,86.34375 C 324.0898,83.675824 326.06483,81.510555 328.64164,80.398521 C 331.21845,79.286488 334.14877,79.334828 336.6875,80.53125 L 367.0625,94.84375 C 371.67293,97.010919 373.84816,102.35383 372.0625,107.125 L 354.625,153.65625 L 372.75,151.125 L 388.40625,108.5625 L 377.59375,66.8125 C 377.58273,66.750103 377.57231,66.6876 377.5625,66.625 L 377.3125,65.53125 C 338.98387,33.891719 290.00942,14.78125 236.4375,14.78125 z"
       id="path3179"
       style="fill:none;fill-opacity:0.1837607;fill-rule:nonzero;stroke:#000000;stroke-width:1;stroke-linecap:butt;stroke-linejoin:round;stroke-miterlimit:4;stroke-dasharray:none;stroke-opacity:1"
       inkscape:original="M 236.4375 5 C 209.40364 5 183.43623 9.6559427 159.3125 18.1875 L 159.125 19.65625 L 183.25 60.78125 L 227.03125 35.75 L 270.84375 62.5625 L 258.34375 111.75 L 215.4375 135.875 L 257.4375 154.65625 L 319.125 130.5 L 332.53125 89.375 L 362.90625 103.6875 L 344.15625 153.75 L 328.9375 167.15625 L 379.90625 160 L 398.65625 109.0625 L 387.0625 64.34375 L 386 59.90625 C 345.65064 25.679104 293.45311 4.9999999 236.4375 5 z "
       inkscape:radius="-9.7808342"
       sodipodi:type="inkscape:offset" />
    <path
       sodipodi:type="inkscape:offset"
       inkscape:radius="-16.570747"
       inkscape:original="M 236.4375 5 C 209.40364 5 183.43623 9.6559427 159.3125 18.1875 L 159.125 19.65625 L 183.25 60.78125 L 227.03125 35.75 L 270.84375 62.5625 L 258.34375 111.75 L 215.4375 135.875 L 257.4375 154.65625 L 319.125 130.5 L 332.53125 89.375 L 362.90625 103.6875 L 344.15625 153.75 L 328.9375 167.15625 L 379.90625 160 L 398.65625 109.0625 L 387.0625 64.34375 L 386 59.90625 C 345.65064 25.679104 293.45311 4.9999999 236.4375 5 z "
       style="fill:none;fill-opacity:0.1837607;fill-rule:nonzero;stroke:#000000;stroke-width:1;stroke-linecap:butt;stroke-linejoin:round;stroke-miterlimit:4;stroke-dasharray:none;stroke-opacity:1"
       id="path3181"
       d="M 236.4375,21.5625 C 236.16394,21.5625 235.89831,21.592727 235.625,21.59375 C 235.64586,21.604123 235.66669,21.614539 235.6875,21.625 L 279.5,48.4375 C 285.69476,52.230975 288.6971,59.616481 286.90625,66.65625 L 274.40625,115.84375 C 273.28484,120.23136 270.41674,123.96893 266.46875,126.1875 L 252.25,134.1875 L 257.84375,136.6875 L 305.8125,117.90625 L 316.78125,84.25 C 318.25132,79.726732 321.59393,76.053094 325.9587,74.163688 C 330.32347,72.274282 335.28963,72.351246 339.59375,74.375 L 369.96875,88.6875 C 377.78174,92.360171 381.46648,101.41566 378.4375,109.5 L 365,145.375 L 367.78125,144.96875 L 381.3125,108.15625 L 371.28125,69.40625 C 334.37202,39.549874 287.62244,21.5625 236.4375,21.5625 z M 216.84375,22.5 C 205.39193,23.537261 194.22986,25.486747 183.375,28.25 L 189.25,38.28125 L 216.84375,22.5 z"
       transform="matrix(0.5,0,0,0.5,324.73871,239.51112)" />
    <path
       transform="matrix(0.5,0,0,0.5,324.73871,239.51112)"
       d="M 258.5625,28.71875 L 282.5625,43.40625 C 290.95572,48.547372 295.02229,58.555432 292.59375,68.09375 L 280.09375,117.28125 C 279.62472,119.08948 278.93186,120.83211 278.03125,122.46875 L 301.0625,113.46875 L 311.1875,82.40625 C 313.18713,76.284771 317.71883,71.316506 323.63112,68.763881 C 329.54341,66.211257 336.26711,66.320007 342.09375,69.0625 L 368.3125,81.40625 L 366.09375,72.84375 C 335.85559,48.823415 299.03259,32.979496 258.5625,28.71875 z"
       id="path3183"
       style="fill:none;fill-opacity:0.1837607;fill-rule:nonzero;stroke:#000000;stroke-width:1;stroke-linecap:butt;stroke-linejoin:round;stroke-miterlimit:4;stroke-dasharray:none;stroke-opacity:1"
       inkscape:original="M 236.4375 5 C 209.40364 5 183.43623 9.6559427 159.3125 18.1875 L 159.125 19.65625 L 183.25 60.78125 L 227.03125 35.75 L 270.84375 62.5625 L 258.34375 111.75 L 215.4375 135.875 L 257.4375 154.65625 L 319.125 130.5 L 332.53125 89.375 L 362.90625 103.6875 L 344.15625 153.75 L 328.9375 167.15625 L 379.90625 160 L 398.65625 109.0625 L 387.0625 64.34375 L 386 59.90625 C 345.65064 25.679104 293.45311 4.9999999 236.4375 5 z "
       inkscape:radius="-22.451578"
       sodipodi:type="inkscape:offset" />
    <path
       sodipodi:type="inkscape:offset"
       inkscape:radius="0"
       inkscape:original="M 12.03125 179.71875 C 7.4514805 197.87237 5 216.86811 5 236.4375 C 5 355.91209 95.691037 454.31445 211.9375 466.5625 L 197.5625 444.25 L 187.71875 415.65625 L 239.5625 427.28125 L 289.625 383.46875 L 281.5625 353.09375 L 210.96875 396.875 L 196.65625 364.6875 L 134.96875 388.84375 L 112.625 349.5 L 166.25 308.375 L 163.59375 269.9375 L 231.5 240.4375 L 237.78125 199.34375 L 171.625 239.5625 L 131.40625 242.25 L 106.375 310.1875 L 42.90625 307.5 L 33.96875 263.6875 L 75.09375 269.0625 L 92.0625 217.21875 L 46.46875 236.875 L 15.1875 183.25 L 12.03125 179.71875 z "
       style="fill:none;fill-opacity:0.1837607;fill-rule:nonzero;stroke:#000000;stroke-width:1;stroke-linecap:butt;stroke-linejoin:round;stroke-miterlimit:4;stroke-dasharray:none;stroke-opacity:1"
       id="path3190"
       d="M 12.03125,179.71875 C 7.4514805,197.87237 5,216.86811 5,236.4375 C 5,355.91209 95.691037,454.31445 211.9375,466.5625 L 197.5625,444.25 L 187.71875,415.65625 L 239.5625,427.28125 L 289.625,383.46875 L 281.5625,353.09375 L 210.96875,396.875 L 196.65625,364.6875 L 134.96875,388.84375 L 112.625,349.5 L 166.25,308.375 L 163.59375,269.9375 L 231.5,240.4375 L 237.78125,199.34375 L 171.625,239.5625 L 131.40625,242.25 L 106.375,310.1875 L 42.90625,307.5 L 33.96875,263.6875 L 75.09375,269.0625 L 92.0625,217.21875 L 46.46875,236.875 L 15.1875,183.25 L 12.03125,179.71875 z"
       transform="matrix(0.5,0,0,0.5,324.73871,239.51112)" />
    <path
       transform="matrix(0.5,0,0,0.5,324.73871,239.51112)"
       d="M 14.3125,190.9375 C 11.306411,205.64454 9.65625,220.84142 9.65625,236.4375 C 9.65625,350.1699 93.434969,444.30812 202.59375,460.65625 L 193.65625,446.78125 C 193.44766,446.45945 193.27972,446.11307 193.15625,445.75 L 183.3125,417.15625 C 182.76672,415.56052 183.12853,413.79435 184.2578,412.54177 C 185.38707,411.28918 187.10645,410.74692 188.75,411.125 L 238.28125,422.21875 L 284.375,381.875 L 278.65625,360.34375 L 213.40625,400.8125 C 212.26548,401.51773 210.8756,401.69558 209.594,401.30033 C 208.3124,400.90507 207.26414,399.97526 206.71875,398.75 L 194.21875,370.625 L 136.65625,393.15625 C 134.51002,393.9897 132.07711,393.12555 130.9375,391.125 L 108.59375,351.78125 C 107.45691,349.76578 107.97653,347.22096 109.8125,345.8125 L 161.46875,306.21875 L 158.96875,270.25 C 158.84103,268.29485 159.95361,266.46973 161.75,265.6875 L 227.28125,237.21875 L 231.6875,208.46875 L 174.03125,243.53125 C 173.39574,243.91403 172.6778,244.13906 171.9375,244.1875 L 134.71875,246.6875 L 110.71875,311.78125 C 110.03283,313.67713 108.20242,314.91423 106.1875,314.84375 L 42.71875,312.15625 C 40.577281,312.07405 38.769872,310.53775 38.34375,308.4375 L 29.40625,264.625 C 29.107607,263.15439 29.537667,261.63008 30.560912,260.53242 C 31.584157,259.43476 33.074571,258.89892 34.5625,259.09375 L 71.875,263.96875 L 84.4375,225.5625 L 48.3125,241.15625 C 46.154811,242.07895 43.6478,241.24775 42.46875,239.21875 L 14.3125,190.9375 z"
       id="path3192"
       style="fill:none;fill-opacity:0.1837607;fill-rule:nonzero;stroke:#000000;stroke-width:1;stroke-linecap:butt;stroke-linejoin:round;stroke-miterlimit:4;stroke-dasharray:none;stroke-opacity:1"
       inkscape:original="M 12.03125 179.71875 C 7.4514805 197.87237 5 216.86811 5 236.4375 C 5 355.91209 95.691037 454.31445 211.9375 466.5625 L 197.5625 444.25 L 187.71875 415.65625 L 239.5625 427.28125 L 289.625 383.46875 L 281.5625 353.09375 L 210.96875 396.875 L 196.65625 364.6875 L 134.96875 388.84375 L 112.625 349.5 L 166.25 308.375 L 163.59375 269.9375 L 231.5 240.4375 L 237.78125 199.34375 L 171.625 239.5625 L 131.40625 242.25 L 106.375 310.1875 L 42.90625 307.5 L 33.96875 263.6875 L 75.09375 269.0625 L 92.0625 217.21875 L 46.46875 236.875 L 15.1875 183.25 L 12.03125 179.71875 z "
       inkscape:radius="-4.6455073"
       sodipodi:type="inkscape:offset" />
    <path
       sodipodi:type="inkscape:offset"
       inkscape:radius="-9.6148376"
       inkscape:original="M 12.03125 179.71875 C 7.4514805 197.87237 5 216.86811 5 236.4375 C 5 355.91209 95.691037 454.31445 211.9375 466.5625 L 197.5625 444.25 L 187.71875 415.65625 L 239.5625 427.28125 L 289.625 383.46875 L 281.5625 353.09375 L 210.96875 396.875 L 196.65625 364.6875 L 134.96875 388.84375 L 112.625 349.5 L 166.25 308.375 L 163.59375 269.9375 L 231.5 240.4375 L 237.78125 199.34375 L 171.625 239.5625 L 131.40625 242.25 L 106.375 310.1875 L 42.90625 307.5 L 33.96875 263.6875 L 75.09375 269.0625 L 92.0625 217.21875 L 46.46875 236.875 L 15.1875 183.25 L 12.03125 179.71875 z "
       style="fill:none;fill-opacity:0.1837607;fill-rule:nonzero;stroke:#000000;stroke-width:1;stroke-linecap:butt;stroke-linejoin:round;stroke-miterlimit:4;stroke-dasharray:none;stroke-opacity:1"
       id="path3194"
       d="M 16.875,205.25 C 15.431115,215.44814 14.625,225.83581 14.625,236.4375 C 14.625,343.85958 90.953691,433.34233 192.28125,453.8125 L 189.46875,449.46875 C 189.05213,448.81376 188.71635,448.11072 188.46875,447.375 L 178.625,418.78125 C 177.49838,415.48987 178.23737,411.84663 180.55744,409.25438 C 182.87751,406.66213 186.4168,405.52515 189.8125,406.28125 L 236.875,416.84375 L 278.8125,380.125 L 275.59375,368.09375 L 216.03125,405.03125 C 213.6724,406.49293 210.7971,406.86428 208.14429,406.04987 C 205.49148,405.23547 203.31985,403.31471 202.1875,400.78125 L 191.59375,376.96875 L 138.46875,397.78125 C 134.01983,399.53155 128.96071,397.74754 126.59375,393.59375 L 104.25,354.25 C 101.88631,350.07148 102.96666,344.78978 106.78125,341.875 L 156.3125,303.90625 L 154,270.59375 C 153.72342,266.5396 156.02516,262.74924 159.75,261.125 L 222.8125,233.71875 L 225.15625,218.28125 L 176.625,247.78125 C 175.30814,248.58095 173.81841,249.05252 172.28125,249.15625 L 138.28125,251.4375 L 115.40625,313.5 C 113.96037,317.42272 110.14555,319.96172 105.96875,319.78125 L 42.5,317.09375 C 38.091442,316.89992 34.380663,313.7303 33.5,309.40625 L 24.5625,265.59375 C 23.94968,262.55464 24.839753,259.4065 26.953143,257.13817 C 29.066533,254.86984 32.143944,253.75962 35.21875,254.15625 L 68.4375,258.5 L 76.3125,234.5 L 50.28125,245.71875 C 45.809802,247.64816 40.601883,245.93009 38.15625,241.71875 L 16.875,205.25 z"
       transform="matrix(0.5,0,0,0.5,324.73871,239.51112)" />
    <path
       transform="matrix(0.5,0,0,0.5,324.73871,239.51112)"
       d="M 20.25,220.96875 C 19.886976,226.08034 19.65625,231.23039 19.65625,236.4375 C 19.65625,243.57177 20.014864,250.60629 20.6875,257.5625 C 23.365597,251.7394 29.51857,248.33374 35.875,249.15625 L 39.21875,249.59375 C 36.977818,248.31928 35.112936,246.47596 33.8125,244.25 L 20.25,220.96875 z M 218.5625,228.125 L 207.40625,234.9375 L 218.25,230.21875 L 218.5625,228.125 z M 68.0625,243.5 L 52.28125,250.3125 C 51.602462,250.60455 50.902547,250.84482 50.1875,251.03125 L 64.96875,252.96875 L 68.0625,243.5 z M 161.34375,254.9375 L 141.875,256.25 L 120.125,315.25 C 117.92068,321.2228 112.11063,325.08774 105.75,324.8125 L 42.28125,322.125 C 40.41393,322.04673 38.578841,321.61182 36.875,320.84375 C 62.999316,382.53227 116.79935,429.42443 182.75,446.25 L 173.875,420.4375 C 172.14514,415.41697 173.26793,409.8534 176.8095,405.8967 C 180.35107,401.94 185.75669,400.20992 190.9375,401.375 L 197.59375,402.875 C 197.59371,402.85417 197.59371,402.83333 197.59375,402.8125 L 188.96875,383.40625 L 140.3125,402.46875 C 133.52741,405.13297 125.81579,402.4026 122.21875,396.0625 L 99.875,356.71875 C 96.275955,350.35815 97.916021,342.31783 103.71875,337.875 L 151.09375,301.5625 L 148.96875,270.9375 C 148.54504,264.75148 152.06219,258.96884 157.75,256.5 L 161.34375,254.9375 z M 272.46875,375.9375 L 220.71875,408.0625 L 235.5,411.375 L 273.125,378.40625 L 272.46875,375.9375 z"
       id="path3196"
       style="fill:none;fill-opacity:0.1837607;fill-rule:nonzero;stroke:#000000;stroke-width:1;stroke-linecap:butt;stroke-linejoin:round;stroke-miterlimit:4;stroke-dasharray:none;stroke-opacity:1"
       inkscape:original="M 12.03125 179.71875 C 7.4514805 197.87237 5 216.86811 5 236.4375 C 5 355.91209 95.691037 454.31445 211.9375 466.5625 L 197.5625 444.25 L 187.71875 415.65625 L 239.5625 427.28125 L 289.625 383.46875 L 281.5625 353.09375 L 210.96875 396.875 L 196.65625 364.6875 L 134.96875 388.84375 L 112.625 349.5 L 166.25 308.375 L 163.59375 269.9375 L 231.5 240.4375 L 237.78125 199.34375 L 171.625 239.5625 L 131.40625 242.25 L 106.375 310.1875 L 42.90625 307.5 L 33.96875 263.6875 L 75.09375 269.0625 L 92.0625 217.21875 L 46.46875 236.875 L 15.1875 183.25 L 12.03125 179.71875 z "
       inkscape:radius="-14.646266"
       sodipodi:type="inkscape:offset" />
    <path
       sodipodi:type="inkscape:offset"
       inkscape:radius="-17.856056"
       inkscape:original="M 12.03125 179.71875 C 7.4514805 197.87237 5 216.86811 5 236.4375 C 5 355.91209 95.691037 454.31445 211.9375 466.5625 L 197.5625 444.25 L 187.71875 415.65625 L 239.5625 427.28125 L 289.625 383.46875 L 281.5625 353.09375 L 210.96875 396.875 L 196.65625 364.6875 L 134.96875 388.84375 L 112.625 349.5 L 166.25 308.375 L 163.59375 269.9375 L 231.5 240.4375 L 237.78125 199.34375 L 171.625 239.5625 L 131.40625 242.25 L 106.375 310.1875 L 42.90625 307.5 L 33.96875 263.6875 L 75.09375 269.0625 L 92.0625 217.21875 L 46.46875 236.875 L 15.1875 183.25 L 12.03125 179.71875 z "
       style="fill:none;fill-opacity:0.1837607;fill-rule:nonzero;stroke:#000000;stroke-width:1;stroke-linecap:butt;stroke-linejoin:round;stroke-miterlimit:4;stroke-dasharray:none;stroke-opacity:1"
       id="path3198"
       d="M 23,232.09375 C 22.970604,233.54746 22.84375,234.97637 22.84375,236.4375 C 22.84375,240.7684 23.183821,245.01488 23.4375,249.28125 C 25.719379,247.61251 28.364832,246.50934 31.15625,246.0625 C 31.114189,246.00026 31.072522,245.93776 31.03125,245.875 L 23,232.09375 z M 62.78125,249.28125 L 62.53125,249.40625 L 62.71875,249.4375 L 62.78125,249.28125 z M 149.5625,258.9375 L 144.15625,259.28125 L 123.125,316.375 C 122.53441,317.94973 121.72432,319.43314 120.71875,320.78125 L 147.78125,300.03125 L 145.78125,271.15625 C 145.48982,266.75617 146.8367,262.40386 149.5625,258.9375 z M 42.40625,325.34375 C 68.185475,381.51952 117.48767,424.53064 177.8125,441.71875 L 170.84375,421.46875 C 168.73348,415.35087 170.09826,408.57004 174.41103,403.74493 C 178.7238,398.91981 185.30956,396.80559 191.625,398.21875 L 192.0625,398.3125 L 187.28125,387.53125 L 141.46875,405.46875 C 133.20394,408.70033 123.82003,405.3727 119.4375,397.65625 L 97.09375,358.3125 C 92.70224,350.56616 94.688468,340.76832 101.75,335.34375 L 112.9375,326.78125 C 110.61437,327.7052 108.12313,328.13106 105.625,328.03125 L 42.40625,325.34375 z M 252.875,391.90625 L 229.125,406.625 L 234.65625,407.875 L 252.875,391.90625 z"
       transform="matrix(0.5,0,0,0.5,324.73871,239.51112)" />
    <path
       style="fill:none;fill-opacity:0.1837607;fill-rule:nonzero;stroke:#000000;stroke-width:0.5;stroke-linecap:butt;stroke-linejoin:round;stroke-miterlimit:4;stroke-dasharray:none;stroke-opacity:1"
       d="M 548.92621,311.22987 L 533.45746,322.63612 L 524.97308,349.90174 L 499.48871,339.62049 L 485.19183,357.49549 L 468.66059,353.47987 L 473.12933,373.58924 L 490.55121,376.71424 L 502.17621,360.63612 L 513.34808,376.27674 L 491.00433,404.88612 L 502.17621,422.76112 L 508.42621,436.16737 L 530.76996,419.18299 L 535.97308,426.54237 C 550.23373,407.30461 558.66059,383.49846 558.66059,357.72987 C 558.66059,341.19276 555.18506,325.46288 548.92621,311.22987 z"
       id="path3202" />
    <path
       sodipodi:type="inkscape:offset"
       inkscape:radius="-5.0460958"
       inkscape:original="M 448.375 143.4375 L 417.4375 166.25 L 400.46875 220.78125 L 349.5 200.21875 L 320.90625 235.96875 L 287.84375 227.9375 L 296.78125 268.15625 L 331.625 274.40625 L 354.875 242.25 L 377.21875 273.53125 L 332.53125 330.75 L 354.875 366.5 L 367.375 393.3125 L 412.0625 359.34375 L 422.46875 374.0625 C 450.99003 335.58699 467.84375 287.97468 467.84375 236.4375 C 467.84375 203.36328 460.89269 171.90352 448.375 143.4375 z "
       style="fill:none;fill-opacity:0.1837607;fill-rule:nonzero;stroke:#000000;stroke-width:1;stroke-linecap:butt;stroke-linejoin:round;stroke-miterlimit:4;stroke-dasharray:none;stroke-opacity:1"
       id="path3209"
       d="M 446.15625,151.34375 L 421.75,169.34375 L 405.28125,222.28125 C 404.86316,223.62406 403.90371,224.73149 402.63415,225.33661 C 401.3646,225.94172 399.90013,225.98962 398.59375,225.46875 L 351.09375,206.3125 L 324.84375,239.125 C 323.61957,240.65317 321.62192,241.33529 319.71875,240.875 L 294.53125,234.75 L 301,263.78125 L 329.375,268.875 L 350.78125,239.28125 C 351.7348,237.96908 353.26096,237.19522 354.883,237.20142 C 356.50504,237.20761 358.02524,237.99309 358.96875,239.3125 L 381.3125,270.59375 C 382.60924,272.41058 382.5584,274.86346 381.1875,276.625 L 338.6875,331.0625 L 359.15625,363.8125 C 359.2616,363.99397 359.35554,364.18184 359.4375,364.375 L 369.28125,385.5 L 409,355.3125 C 410.09301,354.48216 411.47708,354.13287 412.83321,354.34513 C 414.18933,354.55739 415.40048,355.3129 416.1875,356.4375 L 422.40625,365.21875 C 447.80196,328.63344 462.8125,284.33842 462.8125,236.4375 C 462.8125,206.31935 456.83865,177.62256 446.15625,151.34375 z"
       transform="matrix(0.5,0,0,0.5,324.73871,239.51112)" />
    <path
       transform="matrix(0.5,0,0,0.5,324.73871,239.51112)"
       d="M 443.5,160.53125 L 426.75,172.875 L 410.84375,224 C 409.94321,226.89926 407.86977,229.28897 405.12647,230.58937 C 402.38317,231.88976 399.22069,231.98202 396.40625,230.84375 L 352.9375,213.3125 L 329.375,242.75 C 326.74446,246.04602 322.44315,247.52041 318.34375,246.53125 L 302.21875,242.625 L 305.8125,258.75 L 326.84375,262.53125 L 346.09375,235.875 C 348.14362,233.04666 351.42923,231.37748 354.92227,231.38986 C 358.4153,231.40225 361.68899,233.09469 363.71875,235.9375 L 386.0625,267.21875 C 388.86136,271.13517 388.74687,276.42704 385.78125,280.21875 L 345.78125,331.4375 L 364.09375,360.75 C 364.32525,361.12244 364.53396,361.50856 364.71875,361.90625 L 371.53125,376.5 L 405.5,350.6875 C 407.84408,348.90452 410.81199,348.15045 413.72286,348.59828 C 416.63374,349.0461 419.23774,350.65739 420.9375,353.0625 L 422.3125,355.03125 C 444.23579,320.77072 457,280.15516 457,236.4375 C 457,209.73682 452.18606,184.19548 443.5,160.53125 z"
       id="path3211"
       style="fill:none;fill-opacity:0.1837607;fill-rule:nonzero;stroke:#000000;stroke-width:1;stroke-linecap:butt;stroke-linejoin:round;stroke-miterlimit:4;stroke-dasharray:none;stroke-opacity:1"
       inkscape:original="M 448.375 143.4375 L 417.4375 166.25 L 400.46875 220.78125 L 349.5 200.21875 L 320.90625 235.96875 L 287.84375 227.9375 L 296.78125 268.15625 L 331.625 274.40625 L 354.875 242.25 L 377.21875 273.53125 L 332.53125 330.75 L 354.875 366.5 L 367.375 393.3125 L 412.0625 359.34375 L 422.46875 374.0625 C 450.99003 335.58699 467.84375 287.97468 467.84375 236.4375 C 467.84375 203.36328 460.89269 171.90352 448.375 143.4375 z "
       inkscape:radius="-10.854774"
       sodipodi:type="inkscape:offset" />
    <path
       sodipodi:type="inkscape:offset"
       inkscape:radius="-16.867889"
       inkscape:original="M 448.375 143.4375 L 417.4375 166.25 L 400.46875 220.78125 L 349.5 200.21875 L 320.90625 235.96875 L 287.84375 227.9375 L 296.78125 268.15625 L 331.625 274.40625 L 354.875 242.25 L 377.21875 273.53125 L 332.53125 330.75 L 354.875 366.5 L 367.375 393.3125 L 412.0625 359.34375 L 422.46875 374.0625 C 450.99003 335.58699 467.84375 287.97468 467.84375 236.4375 C 467.84375 203.36328 460.89269 171.90352 448.375 143.4375 z "
       style="fill:none;fill-opacity:0.1837607;fill-rule:nonzero;stroke:#000000;stroke-width:1;stroke-linecap:butt;stroke-linejoin:round;stroke-miterlimit:4;stroke-dasharray:none;stroke-opacity:1"
       id="path3213"
       d="M 440.53125,170.15625 L 431.875,176.53125 L 416.5625,225.78125 C 415.16678,230.28314 411.95133,233.99584 407.69491,236.02016 C 403.43848,238.04449 398.52928,238.19582 394.15625,236.4375 L 354.84375,220.5625 L 350.53125,225.96875 C 357.31149,224.15803 364.50455,226.73409 368.59375,232.4375 L 390.9375,263.71875 C 395.2797,269.80187 395.10166,278.01696 390.5,283.90625 L 353.09375,331.8125 L 369.1875,357.5625 C 369.54695,358.14642 369.87047,358.75171 370.15625,359.375 L 373.8125,367.21875 L 401.84375,345.90625 C 407.50566,341.60864 415.25398,341.3212 421.21875,345.1875 C 440.05636,313.28669 450.96875,276.2273 450.96875,236.4375 C 450.96875,213.27521 447.30916,191.0155 440.53125,170.15625 z M 310.1875,250.75 L 310.8125,253.5625 L 324.1875,255.9375 L 327.34375,251.5625 C 324.04812,252.92664 320.40492,253.21109 316.9375,252.375 L 310.1875,250.75 z"
       transform="matrix(0.5,0,0,0.5,324.73871,239.51112)" />
    <path
       transform="matrix(0.5,0,0,0.5,324.73871,239.51112)"
       d="M 437.09375,184.03125 L 423.4375,227.9375 C 421.43968,234.35471 416.84818,239.64342 410.77512,242.52263 C 404.70206,245.40184 397.70138,245.60894 391.46875,243.09375 L 382.40625,239.4375 L 396.78125,259.5625 C 402.97951,268.22893 402.7379,279.94032 396.1875,288.34375 L 361.875,332.28125 L 375.28125,353.75 C 375.75141,354.50692 376.17916,355.28937 376.5625,356.09375 L 397.5,340.1875 C 403.39826,335.71171 411.02913,334.20167 418.1875,336.09375 C 434.45753,306.52712 443.78125,272.6668 443.78125,236.4375 C 443.78125,218.2984 441.45371,200.75165 437.09375,184.03125 z"
       id="path3215"
       style="fill:none;fill-opacity:0.1837607;fill-rule:nonzero;stroke:#000000;stroke-width:1;stroke-linecap:butt;stroke-linejoin:round;stroke-miterlimit:4;stroke-dasharray:none;stroke-opacity:1"
       inkscape:original="M 448.375 143.4375 L 417.4375 166.25 L 400.46875 220.78125 L 349.5 200.21875 L 320.90625 235.96875 L 287.84375 227.9375 L 296.78125 268.15625 L 331.625 274.40625 L 354.875 242.25 L 377.21875 273.53125 L 332.53125 330.75 L 354.875 366.5 L 367.375 393.3125 L 412.0625 359.34375 L 422.46875 374.0625 C 450.99003 335.58699 467.84375 287.97468 467.84375 236.4375 C 467.84375 203.36328 460.89269 171.90352 448.375 143.4375 z "
       inkscape:radius="-24.05184"
       sodipodi:type="inkscape:offset" />
    <path
       sodipodi:type="inkscape:offset"
       inkscape:radius="-30.786907"
       inkscape:original="M 448.375 143.4375 L 417.4375 166.25 L 400.46875 220.78125 L 349.5 200.21875 L 320.90625 235.96875 L 287.84375 227.9375 L 296.78125 268.15625 L 331.625 274.40625 L 354.875 242.25 L 377.21875 273.53125 L 332.53125 330.75 L 354.875 366.5 L 367.375 393.3125 L 412.0625 359.34375 L 422.46875 374.0625 C 450.99003 335.58699 467.84375 287.97468 467.84375 236.4375 C 467.84375 203.36328 460.89269 171.90352 448.375 143.4375 z "
       style="fill:none;fill-opacity:0.1837607;fill-rule:nonzero;stroke:#000000;stroke-width:1;stroke-linecap:butt;stroke-linejoin:round;stroke-miterlimit:4;stroke-dasharray:none;stroke-opacity:1"
       id="path3217"
       d="M 435.5,211.84375 L 429.875,229.9375 C 425.74955,243.2 413.25546,252.05851 399.375,251.5625 L 402.28125,255.625 C 410.20145,266.73041 409.87082,281.72328 401.46875,292.46875 L 370.03125,332.71875 L 378.46875,346.21875 L 393.4375,334.84375 C 399.48876,330.25225 407.02371,328.05966 414.59375,328.6875 C 428.93463,301.09652 437.0625,269.81204 437.0625,236.4375 C 437.0625,228.09191 436.48462,219.90105 435.5,211.84375 z"
       transform="matrix(0.5,0,0,0.5,324.73871,239.51112)" />
  </g>
</svg>
