<?xml version="1.0" encoding="UTF-8" standalone="no"?>
<!-- Created with Inkscape (http://www.inkscape.org/) -->

<svg
   xmlns:dc="http://purl.org/dc/elements/1.1/"
   xmlns:cc="http://creativecommons.org/ns#"
   xmlns:rdf="http://www.w3.org/1999/02/22-rdf-syntax-ns#"
   xmlns:svg="http://www.w3.org/2000/svg"
   xmlns="http://www.w3.org/2000/svg"
   xmlns:xlink="http://www.w3.org/1999/xlink"
   xmlns:sodipodi="http://sodipodi.sourceforge.net/DTD/sodipodi-0.dtd"
   xmlns:inkscape="http://www.inkscape.org/namespaces/inkscape"
   width="152.44986"
   height="98.90493"
   id="svg2"
   sodipodi:version="0.32"
   inkscape:version="0.48.4 r9939"
   version="1.0"
   sodipodi:docname="logo.svg"
   inkscape:output_extension="org.inkscape.output.svg.inkscape"
   inkscape:export-filename="/tmp/logo.png"
   inkscape:export-xdpi="118.07"
   inkscape:export-ydpi="118.07">
  <defs
     id="defs4">
    <linearGradient
       inkscape:collect="always"
       id="linearGradient3324">
      <stop
         style="stop-color:#000000;stop-opacity:1;"
         offset="0"
         id="stop3326" />
      <stop
         style="stop-color:#000000;stop-opacity:0.65923566"
         offset="1"
         id="stop3328" />
    </linearGradient>
    <linearGradient
       inkscape:collect="always"
       id="linearGradient3308">
      <stop
         style="stop-color:#ffffff;stop-opacity:1;"
         offset="0"
         id="stop3310" />
      <stop
         style="stop-color:#ffffff;stop-opacity:0;"
         offset="1"
         id="stop3312" />
    </linearGradient>
    <linearGradient
       inkscape:collect="always"
       id="linearGradient3298">
      <stop
         style="stop-color:#ffffff;stop-opacity:1;"
         offset="0"
         id="stop3300" />
      <stop
         style="stop-color:#ffffff;stop-opacity:0;"
         offset="1"
         id="stop3302" />
    </linearGradient>
    <linearGradient
       inkscape:collect="always"
       id="linearGradient3428">
      <stop
         style="stop-color:#ff0000;stop-opacity:1"
         offset="0"
         id="stop3430" />
      <stop
         style="stop-color:#ffff00;stop-opacity:1"
         offset="1"
         id="stop3432" />
    </linearGradient>
    <inkscape:perspective
       sodipodi:type="inkscape:persp3d"
       inkscape:vp_x="0 : 526.18109 : 1"
       inkscape:vp_y="0 : 1000 : 0"
       inkscape:vp_z="744.09448 : 526.18109 : 1"
       inkscape:persp3d-origin="372.04724 : 350.78739 : 1"
       id="perspective10" />
    <inkscape:perspective
       id="perspective11"
       inkscape:persp3d-origin="236.43304 : 157.62035 : 1"
       inkscape:vp_z="472.86609 : 236.43053 : 1"
       inkscape:vp_y="0 : 1000 : 0"
       inkscape:vp_x="0 : 236.43053 : 1"
       sodipodi:type="inkscape:persp3d" />
    <linearGradient
       id="linearGradient2384"
       inkscape:collect="always">
      <stop
         id="stop2386"
         offset="0"
         style="stop-color:#004f00;stop-opacity:1" />
      <stop
         id="stop2388"
         offset="1"
         style="stop-color:#44ff44;stop-opacity:1" />
    </linearGradient>
    <radialGradient
       inkscape:collect="always"
       xlink:href="#linearGradient3428"
       id="radialGradient3434"
       cx="46.033649"
       cy="32.407566"
       fx="46.033649"
       fy="32.407566"
       r="35.444233"
       gradientUnits="userSpaceOnUse"
       gradientTransform="matrix(-1.4185863,-0.1853009,0.1628454,-1.2466771,108.70203,84.664596)" />
    <radialGradient
       inkscape:collect="always"
       xlink:href="#linearGradient2384"
       id="radialGradient2448"
       gradientUnits="userSpaceOnUse"
       gradientTransform="matrix(0.3650683,-1.2491342,1.4964985,0.437362,-42.023682,1022.4844)"
       cx="518.10187"
       cy="288.15286"
       fx="518.10187"
       fy="288.15286"
       r="236.42857" />
    <linearGradient
       inkscape:collect="always"
       xlink:href="#linearGradient3298"
       id="linearGradient3304"
       x1="414.47787"
       y1="334.70731"
       x2="423.95142"
       y2="397.14651"
       gradientUnits="userSpaceOnUse"
       gradientTransform="translate(-84,0)" />
    <linearGradient
       inkscape:collect="always"
       xlink:href="#linearGradient3308"
       id="linearGradient3314"
       x1="429.84698"
       y1="367.34412"
       x2="429.64856"
       y2="398.03079"
       gradientUnits="userSpaceOnUse" />
    <linearGradient
       inkscape:collect="always"
       xlink:href="#linearGradient3324"
       id="linearGradient3330"
       x1="319.27872"
       y1="320.52988"
       x2="319.27872"
       y2="380.49634"
       gradientUnits="userSpaceOnUse" />
    <linearGradient
       inkscape:collect="always"
       xlink:href="#linearGradient3324"
       id="linearGradient3032"
       gradientUnits="userSpaceOnUse"
       x1="319.27872"
       y1="320.52988"
       x2="319.27872"
       y2="380.49634"
       gradientTransform="translate(20,0)" />
    <linearGradient
       inkscape:collect="always"
       xlink:href="#linearGradient3308"
       id="linearGradient3034"
       gradientUnits="userSpaceOnUse"
       x1="429.84698"
       y1="367.34412"
       x2="429.64856"
       y2="398.03079"
       gradientTransform="translate(20,0)" />
  </defs>
  <sodipodi:namedview
     id="base"
     pagecolor="#000000"
     bordercolor="#666666"
     borderopacity="1.0"
     inkscape:pageopacity="1"
     inkscape:pageshadow="2"
     inkscape:zoom="2.2184874"
     inkscape:cx="118.87037"
     inkscape:cy="49.274618"
     inkscape:document-units="px"
     inkscape:current-layer="layer1"
     showgrid="false"
     inkscape:window-width="1270"
     inkscape:window-height="707"
     inkscape:window-x="5"
     inkscape:window-y="27"
     showguides="true"
     inkscape:guide-bbox="true"
     borderlayer="true"
     fit-margin-top="0"
     fit-margin-left="0"
     fit-margin-right="0"
     fit-margin-bottom="0"
     inkscape:window-maximized="0" />
  <metadata
     id="metadata7">
    <rdf:RDF>
      <cc:Work
         rdf:about="">
        <dc:format>image/svg+xml</dc:format>
        <dc:type
           rdf:resource="http://purl.org/dc/dcmitype/StillImage" />
        <dc:title></dc:title>
      </cc:Work>
    </rdf:RDF>
  </metadata>
  <g
     inkscape:label="Capa 1"
     inkscape:groupmode="layer"
     id="layer1"
     transform="translate(-303.12054,-307.71511)">
    <path
       style="fill:none;stroke:#00ff00;stroke-width:5;stroke-linecap:round;stroke-linejoin:round;stroke-miterlimit:4;stroke-opacity:1;stroke-dasharray:none"
       d="m 421.89509,384.32661 29.09245,15.7368 -9.22614,-30.96826 -19.86631,15.23146 z"
       id="path2482"
       inkscape:connector-curvature="0" />
    <path
       id="path3254"
       d="m 400.36581,390.43901 16.15101,8.73648 -5.12198,-17.19242 -11.02903,8.45594 z"
       style="fill:none;stroke:#00ff00;stroke-width:2.77581644;stroke-linecap:round;stroke-linejoin:round;stroke-miterlimit:4;stroke-opacity:1;stroke-dasharray:none"
       inkscape:connector-curvature="0" />
    <g
       id="g2428"
       transform="matrix(0.418329,0,0,0.418329,167.27292,207.52066)">
      <path
         transform="matrix(0.5,0,0,0.5,222.953,182.97289)"
         d="m 671.42857,349.50504 c 0,127.81447 -103.6141,231.42857 -231.42857,231.42857 -127.81447,0 -231.42857,-103.6141 -231.42857,-231.42857 0,-127.81448 103.6141,-231.42858 231.42857,-231.42858 127.81447,0 231.42857,103.6141 231.42857,231.42858 z"
         sodipodi:ry="231.42857"
         sodipodi:rx="231.42857"
         sodipodi:cy="349.50504"
         sodipodi:cx="440"
         id="path2160"
         style="fill:url(#radialGradient2448);fill-opacity:1;stroke:#000000;stroke-width:10;stroke-miterlimit:4;stroke-opacity:1;stroke-dasharray:none"
         sodipodi:type="arc" />
      <path
         id="path2392"
         d="m 327.23402,346.18558 c 77.35457,67.99717 226.44929,44.29173 226.44929,44.29173"
         style="fill:none;stroke:none"
         inkscape:connector-curvature="0" />
      <path
         id="path3170"
         d="m 442.95746,242.01112 c -13.51693,0 -26.50063,2.32797 -38.5625,6.59375 l -0.0937,0.73437 12.0625,20.5625 21.89063,-12.51562 21.90625,13.40625 -6.25,24.59375 -21.45313,12.0625 21,9.39062 30.84375,-12.07812 6.70312,-20.5625 15.1875,7.15625 -9.37499,25.03125 -7.60938,6.70312 25.48437,-3.57812 9.37501,-25.46875 -5.79688,-22.35938 -0.53125,-2.21875 c -20.17468,-17.11357 -46.27345,-27.45312 -74.78125,-27.45312 z"
         style="fill:none;stroke:#000000;stroke-width:0.5;stroke-linecap:butt;stroke-linejoin:round;stroke-miterlimit:4;stroke-opacity:1;stroke-dasharray:none"
         inkscape:connector-curvature="0" />
      <path
         transform="matrix(0.5,0,0,0.5,324.73871,239.51112)"
         d="m 236.4375,9.46875 c -24.93983,0 -48.86761,4.186555 -71.3125,11.625 l 19.71875,33.625 L 224.8125,31.875 a 4.4651543,4.4651543 0 0 1 4.5625,0.0625 L 273.1875,58.75 a 4.4651543,4.4651543 0 0 1 1.96875,4.90625 l -12.5,49.1875 a 4.4651543,4.4651543 0 0 1 -2.125,2.8125 l -35.1875,19.78125 32.1875,14.375 58,-22.6875 12.75,-39.125 a 4.4651543,4.4651543 0 0 1 6.15625,-2.65625 l 30.375,14.3125 a 4.4651543,4.4651543 0 0 1 2.28125,5.59375 l -18.75,50.0625 a 4.4651543,4.4651543 0 0 1 -1.25,1.78125 l -4.0625,3.59375 33.59375,-4.71875 17.375,-47.125 -11.25,-43.375 a 4.4651543,4.4651543 0 0 1 -0.0312,-0.09375 l -0.6875,-2.9375 C 342.60376,29.404262 291.87097,9.4687499 236.4375,9.46875 z"
         id="path3177"
         style="fill:none;stroke:#000000;stroke-width:1;stroke-linecap:butt;stroke-linejoin:round;stroke-miterlimit:4;stroke-opacity:1;stroke-dasharray:none"
         inkscape:original="M 236.4375 5 C 209.40364 5 183.43623 9.6559427 159.3125 18.1875 L 159.125 19.65625 L 183.25 60.78125 L 227.03125 35.75 L 270.84375 62.5625 L 258.34375 111.75 L 215.4375 135.875 L 257.4375 154.65625 L 319.125 130.5 L 332.53125 89.375 L 362.90625 103.6875 L 344.15625 153.75 L 328.9375 167.15625 L 379.90625 160 L 398.65625 109.0625 L 387.0625 64.34375 L 386 59.90625 C 345.65064 25.679104 293.45311 4.9999999 236.4375 5 z "
         inkscape:radius="-4.4647079"
         sodipodi:type="inkscape:offset" />
      <path
         sodipodi:type="inkscape:offset"
         inkscape:radius="-9.7808342"
         inkscape:original="M 236.4375 5 C 209.40364 5 183.43623 9.6559427 159.3125 18.1875 L 159.125 19.65625 L 183.25 60.78125 L 227.03125 35.75 L 270.84375 62.5625 L 258.34375 111.75 L 215.4375 135.875 L 257.4375 154.65625 L 319.125 130.5 L 332.53125 89.375 L 362.90625 103.6875 L 344.15625 153.75 L 328.9375 167.15625 L 379.90625 160 L 398.65625 109.0625 L 387.0625 64.34375 L 386 59.90625 C 345.65064 25.679104 293.45311 4.9999999 236.4375 5 z "
         style="fill:none;stroke:#000000;stroke-width:1;stroke-linecap:butt;stroke-linejoin:round;stroke-miterlimit:4;stroke-opacity:1;stroke-dasharray:none"
         id="path3179"
         d="m 236.4375,14.78125 c -22.03727,0 -43.23401,3.416243 -63.3125,9.40625 L 186.78125,47.5 222.1875,27.25 a 9.7818123,9.7818123 0 0 1 9.9375,0.15625 l 43.8125,26.8125 a 9.7818123,9.7818123 0 0 1 4.375,10.75 l -12.5,49.1875 a 9.7818123,9.7818123 0 0 1 -4.6875,6.125 l -25.9375,14.59375 20.53125,9.1875 53.53125,-20.96875 11.96875,-36.75 a 9.7818123,9.7818123 0 0 1 13.46875,-5.8125 l 30.375,14.3125 a 9.7818123,9.7818123 0 0 1 5,12.28125 l -17.4375,46.53125 18.125,-2.53125 15.65625,-42.5625 -10.8125,-41.75 a 9.7818123,9.7818123 0 0 1 -0.0312,-0.1875 l -0.25,-1.09375 c -38.32863,-31.639531 -87.30308,-50.75 -140.875,-50.75 z"
         transform="matrix(0.5,0,0,0.5,324.73871,239.51112)" />
      <path
         transform="matrix(0.5,0,0,0.5,324.73871,239.51112)"
         d="m 236.4375,21.5625 c -0.27356,0 -0.53919,0.03023 -0.8125,0.03125 a 16.572404,16.572404 0 0 1 0.0625,0.03125 L 279.5,48.4375 a 16.572404,16.572404 0 0 1 7.40625,18.21875 l -12.5,49.1875 a 16.572404,16.572404 0 0 1 -7.9375,10.34375 l -14.21875,8 5.59375,2.5 L 305.8125,117.90625 316.78125,84.25 a 16.572404,16.572404 0 0 1 22.8125,-9.875 l 30.375,14.3125 A 16.572404,16.572404 0 0 1 378.4375,109.5 L 365,145.375 l 2.78125,-0.40625 13.53125,-36.8125 -10.03125,-38.75 C 334.37202,39.549874 287.62244,21.5625 236.4375,21.5625 z M 216.84375,22.5 c -11.45182,1.037261 -22.61389,2.986747 -33.46875,5.75 L 189.25,38.28125 216.84375,22.5 z"
         id="path3181"
         style="fill:none;stroke:#000000;stroke-width:1;stroke-linecap:butt;stroke-linejoin:round;stroke-miterlimit:4;stroke-opacity:1;stroke-dasharray:none"
         inkscape:original="M 236.4375 5 C 209.40364 5 183.43623 9.6559427 159.3125 18.1875 L 159.125 19.65625 L 183.25 60.78125 L 227.03125 35.75 L 270.84375 62.5625 L 258.34375 111.75 L 215.4375 135.875 L 257.4375 154.65625 L 319.125 130.5 L 332.53125 89.375 L 362.90625 103.6875 L 344.15625 153.75 L 328.9375 167.15625 L 379.90625 160 L 398.65625 109.0625 L 387.0625 64.34375 L 386 59.90625 C 345.65064 25.679104 293.45311 4.9999999 236.4375 5 z "
         inkscape:radius="-16.570747"
         sodipodi:type="inkscape:offset" />
      <path
         sodipodi:type="inkscape:offset"
         inkscape:radius="-22.451578"
         inkscape:original="M 236.4375 5 C 209.40364 5 183.43623 9.6559427 159.3125 18.1875 L 159.125 19.65625 L 183.25 60.78125 L 227.03125 35.75 L 270.84375 62.5625 L 258.34375 111.75 L 215.4375 135.875 L 257.4375 154.65625 L 319.125 130.5 L 332.53125 89.375 L 362.90625 103.6875 L 344.15625 153.75 L 328.9375 167.15625 L 379.90625 160 L 398.65625 109.0625 L 387.0625 64.34375 L 386 59.90625 C 345.65064 25.679104 293.45311 4.9999999 236.4375 5 z "
         style="fill:none;stroke:#000000;stroke-width:1;stroke-linecap:butt;stroke-linejoin:round;stroke-miterlimit:4;stroke-opacity:1;stroke-dasharray:none"
         id="path3183"
         d="m 258.5625,28.71875 24,14.6875 a 22.453823,22.453823 0 0 1 10.03125,24.6875 l -12.5,49.1875 a 22.453823,22.453823 0 0 1 -2.0625,5.1875 l 23.03125,-9 10.125,-31.0625 A 22.453823,22.453823 0 0 1 342.09375,69.0625 l 26.21875,12.34375 -2.21875,-8.5625 C 335.85559,48.823415 299.03259,32.979496 258.5625,28.71875 z"
         transform="matrix(0.5,0,0,0.5,324.73871,239.51112)" />
      <path
         transform="matrix(0.5,0,0,0.5,324.73871,239.51112)"
         d="M 12.03125,179.71875 C 7.4514805,197.87237 5,216.86811 5,236.4375 5,355.91209 95.691037,454.31445 211.9375,466.5625 l -14.375,-22.3125 -9.84375,-28.59375 51.84375,11.625 50.0625,-43.8125 -8.0625,-30.375 -70.59375,43.78125 -14.3125,-32.1875 -61.6875,24.15625 L 112.625,349.5 166.25,308.375 163.59375,269.9375 231.5,240.4375 237.78125,199.34375 171.625,239.5625 131.40625,242.25 106.375,310.1875 42.90625,307.5 l -8.9375,-43.8125 41.125,5.375 L 92.0625,217.21875 46.46875,236.875 15.1875,183.25 12.03125,179.71875 z"
         id="path3190"
         style="fill:none;stroke:#000000;stroke-width:1;stroke-linecap:butt;stroke-linejoin:round;stroke-miterlimit:4;stroke-opacity:1;stroke-dasharray:none"
         inkscape:original="M 12.03125 179.71875 C 7.4514805 197.87237 5 216.86811 5 236.4375 C 5 355.91209 95.691037 454.31445 211.9375 466.5625 L 197.5625 444.25 L 187.71875 415.65625 L 239.5625 427.28125 L 289.625 383.46875 L 281.5625 353.09375 L 210.96875 396.875 L 196.65625 364.6875 L 134.96875 388.84375 L 112.625 349.5 L 166.25 308.375 L 163.59375 269.9375 L 231.5 240.4375 L 237.78125 199.34375 L 171.625 239.5625 L 131.40625 242.25 L 106.375 310.1875 L 42.90625 307.5 L 33.96875 263.6875 L 75.09375 269.0625 L 92.0625 217.21875 L 46.46875 236.875 L 15.1875 183.25 L 12.03125 179.71875 z "
         inkscape:radius="0"
         sodipodi:type="inkscape:offset" />
      <path
         sodipodi:type="inkscape:offset"
         inkscape:radius="-4.6455073"
         inkscape:original="M 12.03125 179.71875 C 7.4514805 197.87237 5 216.86811 5 236.4375 C 5 355.91209 95.691037 454.31445 211.9375 466.5625 L 197.5625 444.25 L 187.71875 415.65625 L 239.5625 427.28125 L 289.625 383.46875 L 281.5625 353.09375 L 210.96875 396.875 L 196.65625 364.6875 L 134.96875 388.84375 L 112.625 349.5 L 166.25 308.375 L 163.59375 269.9375 L 231.5 240.4375 L 237.78125 199.34375 L 171.625 239.5625 L 131.40625 242.25 L 106.375 310.1875 L 42.90625 307.5 L 33.96875 263.6875 L 75.09375 269.0625 L 92.0625 217.21875 L 46.46875 236.875 L 15.1875 183.25 L 12.03125 179.71875 z "
         style="fill:none;stroke:#000000;stroke-width:1;stroke-linecap:butt;stroke-linejoin:round;stroke-miterlimit:4;stroke-opacity:1;stroke-dasharray:none"
         id="path3192"
         d="m 14.3125,190.9375 c -3.006089,14.70704 -4.65625,29.90392 -4.65625,45.5 0,113.7324 83.778719,207.87062 192.9375,224.21875 l -8.9375,-13.875 a 4.6459719,4.6459719 0 0 1 -0.5,-1.03125 L 183.3125,417.15625 A 4.6459719,4.6459719 0 0 1 188.75,411.125 l 49.53125,11.09375 46.09375,-40.34375 -5.71875,-21.53125 -65.25,40.46875 a 4.6459719,4.6459719 0 0 1 -6.6875,-2.0625 l -12.5,-28.125 -57.5625,22.53125 A 4.6459719,4.6459719 0 0 1 130.9375,391.125 l -22.34375,-39.34375 a 4.6459719,4.6459719 0 0 1 1.21875,-5.96875 l 51.65625,-39.59375 -2.5,-35.96875 a 4.6459719,4.6459719 0 0 1 2.78125,-4.5625 l 65.53125,-28.46875 4.40625,-28.75 -57.65625,35.0625 a 4.6459719,4.6459719 0 0 1 -2.09375,0.65625 l -37.21875,2.5 -24,65.09375 a 4.6459719,4.6459719 0 0 1 -4.53125,3.0625 l -63.46875,-2.6875 a 4.6459719,4.6459719 0 0 1 -4.375,-3.71875 l -8.9375,-43.8125 a 4.6459719,4.6459719 0 0 1 5.15625,-5.53125 l 37.3125,4.875 12.5625,-38.40625 -36.125,15.59375 a 4.6459719,4.6459719 0 0 1 -5.84375,-1.9375 L 14.3125,190.9375 z"
         transform="matrix(0.5,0,0,0.5,324.73871,239.51112)" />
      <path
         transform="matrix(0.5,0,0,0.5,324.73871,239.51112)"
         d="m 16.875,205.25 c -1.443885,10.19814 -2.25,20.58581 -2.25,31.1875 0,107.42208 76.328691,196.90483 177.65625,217.375 l -2.8125,-4.34375 a 9.6157991,9.6157991 0 0 1 -1,-2.09375 L 178.625,418.78125 a 9.6157991,9.6157991 0 0 1 11.1875,-12.5 l 47.0625,10.5625 41.9375,-36.71875 -3.21875,-12.03125 -59.5625,36.9375 a 9.6157991,9.6157991 0 0 1 -13.84375,-4.25 l -10.59375,-23.8125 -53.125,20.8125 a 9.6157991,9.6157991 0 0 1 -11.875,-4.1875 L 104.25,354.25 a 9.6157991,9.6157991 0 0 1 2.53125,-12.375 L 156.3125,303.90625 154,270.59375 a 9.6157991,9.6157991 0 0 1 5.75,-9.46875 l 63.0625,-27.40625 2.34375,-15.4375 -48.53125,29.5 a 9.6157991,9.6157991 0 0 1 -4.34375,1.375 l -34,2.28125 -22.875,62.0625 a 9.6157991,9.6157991 0 0 1 -9.4375,6.28125 L 42.5,317.09375 a 9.6157991,9.6157991 0 0 1 -9,-7.6875 l -8.9375,-43.8125 a 9.6157991,9.6157991 0 0 1 10.65625,-11.4375 L 68.4375,258.5 l 7.875,-24 -26.03125,11.21875 a 9.6157991,9.6157991 0 0 1 -12.125,-4 L 16.875,205.25 z"
         id="path3194"
         style="fill:none;stroke:#000000;stroke-width:1;stroke-linecap:butt;stroke-linejoin:round;stroke-miterlimit:4;stroke-opacity:1;stroke-dasharray:none"
         inkscape:original="M 12.03125 179.71875 C 7.4514805 197.87237 5 216.86811 5 236.4375 C 5 355.91209 95.691037 454.31445 211.9375 466.5625 L 197.5625 444.25 L 187.71875 415.65625 L 239.5625 427.28125 L 289.625 383.46875 L 281.5625 353.09375 L 210.96875 396.875 L 196.65625 364.6875 L 134.96875 388.84375 L 112.625 349.5 L 166.25 308.375 L 163.59375 269.9375 L 231.5 240.4375 L 237.78125 199.34375 L 171.625 239.5625 L 131.40625 242.25 L 106.375 310.1875 L 42.90625 307.5 L 33.96875 263.6875 L 75.09375 269.0625 L 92.0625 217.21875 L 46.46875 236.875 L 15.1875 183.25 L 12.03125 179.71875 z "
         inkscape:radius="-9.6148376"
         sodipodi:type="inkscape:offset" />
      <path
         sodipodi:type="inkscape:offset"
         inkscape:radius="-14.646266"
         inkscape:original="M 12.03125 179.71875 C 7.4514805 197.87237 5 216.86811 5 236.4375 C 5 355.91209 95.691037 454.31445 211.9375 466.5625 L 197.5625 444.25 L 187.71875 415.65625 L 239.5625 427.28125 L 289.625 383.46875 L 281.5625 353.09375 L 210.96875 396.875 L 196.65625 364.6875 L 134.96875 388.84375 L 112.625 349.5 L 166.25 308.375 L 163.59375 269.9375 L 231.5 240.4375 L 237.78125 199.34375 L 171.625 239.5625 L 131.40625 242.25 L 106.375 310.1875 L 42.90625 307.5 L 33.96875 263.6875 L 75.09375 269.0625 L 92.0625 217.21875 L 46.46875 236.875 L 15.1875 183.25 L 12.03125 179.71875 z "
         style="fill:none;stroke:#000000;stroke-width:1;stroke-linecap:butt;stroke-linejoin:round;stroke-miterlimit:4;stroke-opacity:1;stroke-dasharray:none"
         id="path3196"
         d="m 20.25,220.96875 c -0.363024,5.11159 -0.59375,10.26164 -0.59375,15.46875 0,7.13427 0.358614,14.16879 1.03125,21.125 a 14.647731,14.647731 0 0 1 15.1875,-8.40625 l 3.34375,0.4375 A 14.647731,14.647731 0 0 1 33.8125,244.25 L 20.25,220.96875 z m 198.3125,7.15625 -11.15625,6.8125 10.84375,-4.71875 0.3125,-2.09375 z m -150.5,15.375 -15.78125,6.8125 a 14.647731,14.647731 0 0 1 -2.09375,0.71875 l 14.78125,1.9375 L 68.0625,243.5 z m 93.28125,11.4375 -19.46875,1.3125 -21.75,59 a 14.647731,14.647731 0 0 1 -14.375,9.5625 L 42.28125,322.125 A 14.647731,14.647731 0 0 1 36.875,320.84375 C 62.999316,382.53227 116.79935,429.42443 182.75,446.25 l -8.875,-25.8125 a 14.647731,14.647731 0 0 1 17.0625,-19.0625 l 6.65625,1.5 a 14.647731,14.647731 0 0 1 0,-0.0625 l -8.625,-19.40625 -48.65625,19.0625 A 14.647731,14.647731 0 0 1 122.21875,396.0625 L 99.875,356.71875 a 14.647731,14.647731 0 0 1 3.84375,-18.84375 l 47.375,-36.3125 -2.125,-30.625 A 14.647731,14.647731 0 0 1 157.75,256.5 l 3.59375,-1.5625 z m 111.125,121 -51.75,32.125 14.78125,3.3125 37.625,-32.96875 -0.65625,-2.46875 z"
         transform="matrix(0.5,0,0,0.5,324.73871,239.51112)" />
      <path
         transform="matrix(0.5,0,0,0.5,324.73871,239.51112)"
         d="m 23,232.09375 c -0.0294,1.45371 -0.15625,2.88262 -0.15625,4.34375 0,4.3309 0.340071,8.57738 0.59375,12.84375 a 17.857842,17.857842 0 0 1 7.71875,-3.21875 17.857842,17.857842 0 0 1 -0.125,-0.1875 L 23,232.09375 z m 39.78125,17.1875 -0.25,0.125 0.1875,0.0312 0.0625,-0.15625 z m 86.78125,9.65625 -5.40625,0.34375 L 123.125,316.375 a 17.857842,17.857842 0 0 1 -2.40625,4.40625 l 27.0625,-20.75 -2,-28.875 A 17.857842,17.857842 0 0 1 149.5625,258.9375 z M 42.40625,325.34375 c 25.779225,56.17577 75.08142,99.18689 135.40625,116.375 l -6.96875,-20.25 a 17.857842,17.857842 0 0 1 20.78125,-23.25 l 0.4375,0.0937 -4.78125,-10.78125 -45.8125,17.9375 a 17.857842,17.857842 0 0 1 -22.03125,-7.8125 L 97.09375,358.3125 A 17.857842,17.857842 0 0 1 101.75,335.34375 l 11.1875,-8.5625 a 17.857842,17.857842 0 0 1 -7.3125,1.25 l -63.21875,-2.6875 z m 210.46875,66.5625 -23.75,14.71875 5.53125,1.25 18.21875,-15.96875 z"
         id="path3198"
         style="fill:none;stroke:#000000;stroke-width:1;stroke-linecap:butt;stroke-linejoin:round;stroke-miterlimit:4;stroke-opacity:1;stroke-dasharray:none"
         inkscape:original="M 12.03125 179.71875 C 7.4514805 197.87237 5 216.86811 5 236.4375 C 5 355.91209 95.691037 454.31445 211.9375 466.5625 L 197.5625 444.25 L 187.71875 415.65625 L 239.5625 427.28125 L 289.625 383.46875 L 281.5625 353.09375 L 210.96875 396.875 L 196.65625 364.6875 L 134.96875 388.84375 L 112.625 349.5 L 166.25 308.375 L 163.59375 269.9375 L 231.5 240.4375 L 237.78125 199.34375 L 171.625 239.5625 L 131.40625 242.25 L 106.375 310.1875 L 42.90625 307.5 L 33.96875 263.6875 L 75.09375 269.0625 L 92.0625 217.21875 L 46.46875 236.875 L 15.1875 183.25 L 12.03125 179.71875 z "
         inkscape:radius="-17.856056"
         sodipodi:type="inkscape:offset" />
      <path
         id="path3202"
         d="m 548.92621,311.22987 -15.46875,11.40625 -8.48438,27.26562 -25.48437,-10.28125 -14.29688,17.875 -16.53124,-4.01562 4.46874,20.10937 17.42188,3.125 11.625,-16.07812 11.17187,15.64062 -22.34375,28.60938 11.17188,17.875 6.25,13.40625 22.34375,-16.98438 5.20312,7.35938 c 14.26065,-19.23776 22.68751,-43.04391 22.68751,-68.8125 0,-16.53711 -3.47553,-32.26699 -9.73438,-46.5 z"
         style="fill:none;stroke:#000000;stroke-width:0.5;stroke-linecap:butt;stroke-linejoin:round;stroke-miterlimit:4;stroke-opacity:1;stroke-dasharray:none"
         inkscape:connector-curvature="0" />
      <path
         transform="matrix(0.5,0,0,0.5,324.73871,239.51112)"
         d="m 446.15625,151.34375 -24.40625,18 -16.46875,52.9375 a 5.0466005,5.0466005 0 0 1 -6.6875,3.1875 l -47.5,-19.15625 -26.25,32.8125 a 5.0466005,5.0466005 0 0 1 -5.125,1.75 l -25.1875,-6.125 6.46875,29.03125 28.375,5.09375 21.40625,-29.59375 a 5.0466005,5.0466005 0 0 1 8.1875,0.0312 l 22.34375,31.28125 a 5.0466005,5.0466005 0 0 1 -0.125,6.03125 l -42.5,54.4375 20.46875,32.75 a 5.0466005,5.0466005 0 0 1 0.28125,0.5625 L 369.28125,385.5 409,355.3125 a 5.0466005,5.0466005 0 0 1 7.1875,1.125 l 6.21875,8.78125 c 25.39571,-36.58531 40.40625,-80.88033 40.40625,-128.78125 0,-30.11815 -5.97385,-58.81494 -16.65625,-85.09375 z"
         id="path3209"
         style="fill:none;stroke:#000000;stroke-width:1;stroke-linecap:butt;stroke-linejoin:round;stroke-miterlimit:4;stroke-opacity:1;stroke-dasharray:none"
         inkscape:original="M 448.375 143.4375 L 417.4375 166.25 L 400.46875 220.78125 L 349.5 200.21875 L 320.90625 235.96875 L 287.84375 227.9375 L 296.78125 268.15625 L 331.625 274.40625 L 354.875 242.25 L 377.21875 273.53125 L 332.53125 330.75 L 354.875 366.5 L 367.375 393.3125 L 412.0625 359.34375 L 422.46875 374.0625 C 450.99003 335.58699 467.84375 287.97468 467.84375 236.4375 C 467.84375 203.36328 460.89269 171.90352 448.375 143.4375 z "
         inkscape:radius="-5.0460958"
         sodipodi:type="inkscape:offset" />
      <path
         sodipodi:type="inkscape:offset"
         inkscape:radius="-10.854774"
         inkscape:original="M 448.375 143.4375 L 417.4375 166.25 L 400.46875 220.78125 L 349.5 200.21875 L 320.90625 235.96875 L 287.84375 227.9375 L 296.78125 268.15625 L 331.625 274.40625 L 354.875 242.25 L 377.21875 273.53125 L 332.53125 330.75 L 354.875 366.5 L 367.375 393.3125 L 412.0625 359.34375 L 422.46875 374.0625 C 450.99003 335.58699 467.84375 287.97468 467.84375 236.4375 C 467.84375 203.36328 460.89269 171.90352 448.375 143.4375 z "
         style="fill:none;stroke:#000000;stroke-width:1;stroke-linecap:butt;stroke-linejoin:round;stroke-miterlimit:4;stroke-opacity:1;stroke-dasharray:none"
         id="path3211"
         d="M 443.5,160.53125 426.75,172.875 410.84375,224 a 10.85586,10.85586 0 0 1 -14.4375,6.84375 L 352.9375,213.3125 329.375,242.75 a 10.85586,10.85586 0 0 1 -11.03125,3.78125 l -16.125,-3.90625 3.59375,16.125 21.03125,3.78125 19.25,-26.65625 a 10.85586,10.85586 0 0 1 17.625,0.0625 l 22.34375,31.28125 a 10.85586,10.85586 0 0 1 -0.28125,13 l -40,51.21875 18.3125,29.3125 a 10.85586,10.85586 0 0 1 0.625,1.15625 L 371.53125,376.5 405.5,350.6875 a 10.85586,10.85586 0 0 1 15.4375,2.375 l 1.375,1.96875 C 444.23579,320.77072 457,280.15516 457,236.4375 c 0,-26.70068 -4.81394,-52.24202 -13.5,-75.90625 z"
         transform="matrix(0.5,0,0,0.5,324.73871,239.51112)" />
      <path
         transform="matrix(0.5,0,0,0.5,324.73871,239.51112)"
         d="m 440.53125,170.15625 -8.65625,6.375 -15.3125,49.25 a 16.869576,16.869576 0 0 1 -22.40625,10.65625 l -39.3125,-15.875 -4.3125,5.40625 a 16.869576,16.869576 0 0 1 18.0625,6.46875 l 22.34375,31.28125 a 16.869576,16.869576 0 0 1 -0.4375,20.1875 l -37.40625,47.90625 16.09375,25.75 a 16.869576,16.869576 0 0 1 0.96875,1.8125 l 3.65625,7.84375 28.03125,-21.3125 a 16.869576,16.869576 0 0 1 19.375,-0.71875 c 18.83761,-31.90081 29.75,-68.9602 29.75,-108.75 0,-23.16229 -3.65959,-45.422 -10.4375,-66.28125 z M 310.1875,250.75 l 0.625,2.8125 13.375,2.375 3.15625,-4.375 a 16.869576,16.869576 0 0 1 -10.40625,0.8125 l -6.75,-1.625 z"
         id="path3213"
         style="fill:none;stroke:#000000;stroke-width:1;stroke-linecap:butt;stroke-linejoin:round;stroke-miterlimit:4;stroke-opacity:1;stroke-dasharray:none"
         inkscape:original="M 448.375 143.4375 L 417.4375 166.25 L 400.46875 220.78125 L 349.5 200.21875 L 320.90625 235.96875 L 287.84375 227.9375 L 296.78125 268.15625 L 331.625 274.40625 L 354.875 242.25 L 377.21875 273.53125 L 332.53125 330.75 L 354.875 366.5 L 367.375 393.3125 L 412.0625 359.34375 L 422.46875 374.0625 C 450.99003 335.58699 467.84375 287.97468 467.84375 236.4375 C 467.84375 203.36328 460.89269 171.90352 448.375 143.4375 z "
         inkscape:radius="-16.867889"
         sodipodi:type="inkscape:offset" />
      <path
         sodipodi:type="inkscape:offset"
         inkscape:radius="-24.05184"
         inkscape:original="M 448.375 143.4375 L 417.4375 166.25 L 400.46875 220.78125 L 349.5 200.21875 L 320.90625 235.96875 L 287.84375 227.9375 L 296.78125 268.15625 L 331.625 274.40625 L 354.875 242.25 L 377.21875 273.53125 L 332.53125 330.75 L 354.875 366.5 L 367.375 393.3125 L 412.0625 359.34375 L 422.46875 374.0625 C 450.99003 335.58699 467.84375 287.97468 467.84375 236.4375 C 467.84375 203.36328 460.89269 171.90352 448.375 143.4375 z "
         style="fill:none;stroke:#000000;stroke-width:1;stroke-linecap:butt;stroke-linejoin:round;stroke-miterlimit:4;stroke-opacity:1;stroke-dasharray:none"
         id="path3215"
         d="M 437.09375,184.03125 423.4375,227.9375 a 24.054245,24.054245 0 0 1 -31.96875,15.15625 l -9.0625,-3.65625 14.375,20.125 a 24.054245,24.054245 0 0 1 -0.59375,28.78125 l -34.3125,43.9375 13.40625,21.46875 a 24.054245,24.054245 0 0 1 1.28125,2.34375 L 397.5,340.1875 a 24.054245,24.054245 0 0 1 20.6875,-4.09375 c 16.27003,-29.56663 25.59375,-63.42695 25.59375,-99.65625 0,-18.1391 -2.32754,-35.68585 -6.6875,-52.40625 z"
         transform="matrix(0.5,0,0,0.5,324.73871,239.51112)" />
      <path
         transform="matrix(0.5,0,0,0.5,324.73871,239.51112)"
         d="m 435.5,211.84375 -5.625,18.09375 a 30.789986,30.789986 0 0 1 -30.5,21.625 l 2.90625,4.0625 a 30.789986,30.789986 0 0 1 -0.8125,36.84375 l -31.4375,40.25 8.4375,13.5 14.96875,-11.375 a 30.789986,30.789986 0 0 1 21.15625,-6.15625 c 14.34088,-27.59098 22.46875,-58.87546 22.46875,-92.25 0,-8.34559 -0.57788,-16.53645 -1.5625,-24.59375 z"
         id="path3217"
         style="fill:none;stroke:#000000;stroke-width:1;stroke-linecap:butt;stroke-linejoin:round;stroke-miterlimit:4;stroke-opacity:1;stroke-dasharray:none"
         inkscape:original="M 448.375 143.4375 L 417.4375 166.25 L 400.46875 220.78125 L 349.5 200.21875 L 320.90625 235.96875 L 287.84375 227.9375 L 296.78125 268.15625 L 331.625 274.40625 L 354.875 242.25 L 377.21875 273.53125 L 332.53125 330.75 L 354.875 366.5 L 367.375 393.3125 L 412.0625 359.34375 L 422.46875 374.0625 C 450.99003 335.58699 467.84375 287.97468 467.84375 236.4375 C 467.84375 203.36328 460.89269 171.90352 448.375 143.4375 z "
         inkscape:radius="-30.786907"
         sodipodi:type="inkscape:offset" />
    </g>
    <path
       style="fill:none;stroke:#00ff00;stroke-width:2.77581644;stroke-linecap:round;stroke-linejoin:round;stroke-miterlimit:4;stroke-opacity:1;stroke-dasharray:none"
       d="m 400.36581,360.43901 16.15101,8.73648 -5.12198,-17.19242 -11.02903,8.45594 z"
       id="path3256"
       inkscape:connector-curvature="0" />
    <text
       xml:space="preserve"
       style="font-size:87.64928436px;font-style:normal;font-variant:normal;font-weight:normal;font-stretch:condensed;text-align:start;line-height:125%;writing-mode:lr-tb;text-anchor:start;fill:url(#linearGradient3032);fill-opacity:1;stroke:url(#linearGradient3034);stroke-width:2;stroke-linecap:round;stroke-linejoin:round;stroke-miterlimit:4;stroke-opacity:1;stroke-dasharray:none;stroke-dashoffset:0;font-family:Impact;-inkscape-font-specification:Impact Condensed"
       x="319.78418"
       y="385.42361"
       id="text2450"
       sodipodi:linespacing="125%"><tspan
         sodipodi:role="line"
         id="tspan2452"
         x="319.78418"
         y="385.42361"
         dx="60.018986"
         style="fill:url(#linearGradient3032);fill-opacity:1;stroke:url(#linearGradient3034);stroke-width:2;stroke-linecap:round;stroke-linejoin:round;stroke-miterlimit:4;stroke-opacity:1;stroke-dasharray:none;stroke-dashoffset:0">ar</tspan></text>
    <text
       xml:space="preserve"
       style="font-size:73.39087677px;font-style:normal;font-variant:normal;font-weight:normal;font-stretch:condensed;text-align:start;line-height:125%;writing-mode:lr-tb;text-anchor:start;fill:url(#linearGradient3304);fill-opacity:1;stroke:none;font-family:Impact;-inkscape-font-specification:Impact Condensed"
       x="322.40494"
       y="386.17633"
       id="text2454"
       sodipodi:linespacing="125%"><tspan
         sodipodi:role="line"
         id="tspan2456"
         x="322.40494"
         y="386.17633"
         style="fill:url(#linearGradient3304);fill-opacity:1">W</tspan></text>
    <text
       sodipodi:linespacing="125%"
       id="text2458"
       y="368.06357"
       x="279.45111"
       style="font-size:33.6322403px;font-style:normal;font-variant:normal;font-weight:normal;font-stretch:condensed;text-align:start;line-height:125%;writing-mode:lr-tb;text-anchor:start;fill:#000000;fill-opacity:1;stroke:none;font-family:Impact;-inkscape-font-specification:Impact Condensed"
       xml:space="preserve"><tspan
         y="368.06357"
         x="279.45111"
         id="tspan2460"
         sodipodi:role="line" /></text>
  </g>
</svg>
